<svg width="120" height="49" viewBox="30 0 100 49" fill="none" xmlns="http://www.w3.org/2000/svg">
<rect width="160" height="49" fill="none"/>
<path d="M38.4183 35.192C36.2903 35.192 34.5863 34.792 33.3063 33.992C32.0263 33.176 31.3863 31.936 31.3863 30.272C31.3863 29.392 31.5383 28.72 31.8423 28.256C32.1463 27.792 32.5943 27.56 33.1863 27.56C33.6183 27.56 33.9703 27.672 34.2423 27.896C34.5143 28.12 34.6503 28.408 34.6503 28.76C34.6503 29.08 34.6263 29.36 34.5783 29.6C34.5783 29.664 34.5623 29.776 34.5303 29.936C34.5143 30.096 34.5063 30.264 34.5063 30.44C34.5063 31.16 34.8663 31.696 35.5863 32.048C36.3223 32.4 37.3463 32.576 38.6583 32.576C40.0183 32.576 41.0823 32.336 41.8503 31.856C42.6183 31.36 43.0023 30.672 43.0023 29.792C43.0023 29.248 42.8263 28.784 42.4743 28.4C42.1223 28 41.6823 27.672 41.1543 27.416C40.6263 27.144 39.8823 26.816 38.9223 26.432C37.6903 25.952 36.6823 25.496 35.8983 25.064C35.1303 24.632 34.4663 24.048 33.9063 23.312C33.3623 22.56 33.0903 21.632 33.0903 20.528C33.0903 19.376 33.3943 18.352 34.0023 17.456C34.6263 16.56 35.5143 15.864 36.6663 15.368C37.8343 14.872 39.2023 14.624 40.7703 14.624C41.9383 14.624 43.0103 14.8 43.9863 15.152C44.9623 15.488 45.7383 16.008 46.3143 16.712C46.9063 17.416 47.2023 18.28 47.2023 19.304C47.2023 20.312 47.0503 21.072 46.7463 21.584C46.4423 22.096 45.9943 22.352 45.4023 22.352C44.9863 22.352 44.6343 22.224 44.3463 21.968C44.0743 21.712 43.9383 21.408 43.9383 21.056C43.9383 20.752 43.9623 20.472 44.0103 20.216C44.0583 19.736 44.0823 19.432 44.0823 19.304C44.0823 18.632 43.7543 18.12 43.0983 17.768C42.4423 17.416 41.6263 17.24 40.6503 17.24C39.2743 17.24 38.2183 17.496 37.4823 18.008C36.7623 18.504 36.4023 19.208 36.4023 20.12C36.4023 20.728 36.5863 21.248 36.9543 21.68C37.3383 22.112 37.8103 22.472 38.3703 22.76C38.9303 23.048 39.7143 23.392 40.7223 23.792C41.9383 24.288 42.9143 24.736 43.6503 25.136C44.3863 25.536 45.0103 26.08 45.5223 26.768C46.0503 27.456 46.3143 28.304 46.3143 29.312C46.3143 31.2 45.5943 32.656 44.1543 33.68C42.7303 34.688 40.8183 35.192 38.4183 35.192ZM49.9498 35.12C49.3418 35.12 48.9098 34.8 48.6538 34.16C48.4138 33.52 48.2938 32.496 48.2938 31.088C48.2938 29.008 48.5898 27.032 49.1818 25.16C49.3258 24.696 49.5578 24.36 49.8778 24.152C50.2138 23.928 50.6778 23.816 51.2698 23.816C51.5898 23.816 51.8138 23.856 51.9418 23.936C52.0698 24.016 52.1338 24.168 52.1338 24.392C52.1338 24.648 52.0138 25.224 51.7738 26.12C51.6138 26.76 51.4858 27.32 51.3898 27.8C51.2938 28.28 51.2138 28.872 51.1498 29.576C51.6778 28.2 52.2698 27.08 52.9258 26.216C53.5818 25.352 54.2218 24.736 54.8458 24.368C55.4858 24 56.0698 23.816 56.5978 23.816C57.6378 23.816 58.1578 24.336 58.1578 25.376C58.1578 26 57.9818 27.128 57.6298 28.76C57.3258 30.152 57.1738 31.072 57.1738 31.52C57.1738 32.16 57.4058 32.48 57.8698 32.48C58.1898 32.48 58.5658 32.288 58.9978 31.904C59.4458 31.504 60.0378 30.864 60.7738 29.984C60.9658 29.76 61.1818 29.648 61.4218 29.648C61.6298 29.648 61.7898 29.744 61.9018 29.936C62.0298 30.128 62.0938 30.392 62.0938 30.728C62.0938 31.368 61.9418 31.864 61.6378 32.216C60.9498 33.064 60.2058 33.76 59.4058 34.304C58.6218 34.848 57.7258 35.12 56.7178 35.12C55.9018 35.12 55.2858 34.888 54.8698 34.424C54.4538 33.944 54.2458 33.256 54.2458 32.36C54.2458 31.912 54.3578 31.112 54.5818 29.96C54.7898 28.952 54.8938 28.256 54.8938 27.872C54.8938 27.616 54.8058 27.488 54.6298 27.488C54.4218 27.488 54.1258 27.76 53.7418 28.304C53.3738 28.832 52.9898 29.536 52.5898 30.416C52.2058 31.296 51.8938 32.224 51.6538 33.2C51.4778 33.952 51.2698 34.464 51.0298 34.736C50.8058 34.992 50.4458 35.12 49.9498 35.12ZM70.856 29.648C71.064 29.648 71.224 29.744 71.336 29.936C71.464 30.128 71.528 30.392 71.528 30.728C71.528 31.368 71.376 31.864 71.072 32.216C70.48 32.936 69.64 33.6 68.552 34.208C67.48 34.816 66.328 35.12 65.096 35.12C63.416 35.12 62.112 34.664 61.184 33.752C60.256 32.84 59.792 31.592 59.792 30.008C59.792 28.904 60.024 27.88 60.488 26.936C60.952 25.976 61.592 25.216 62.408 24.656C63.24 24.096 64.176 23.816 65.216 23.816C66.144 23.816 66.888 24.096 67.448 24.656C68.008 25.2 68.288 25.944 68.288 26.888C68.288 27.992 67.888 28.944 67.088 29.744C66.304 30.528 64.968 31.152 63.08 31.616C63.48 32.352 64.24 32.72 65.36 32.72C66.08 32.72 66.896 32.472 67.808 31.976C68.736 31.464 69.536 30.8 70.208 29.984C70.4 29.76 70.616 29.648 70.856 29.648ZM64.808 26.168C64.216 26.168 63.712 26.512 63.296 27.2C62.896 27.888 62.696 28.72 62.696 29.696V29.744C63.64 29.52 64.384 29.184 64.928 28.736C65.472 28.288 65.744 27.768 65.744 27.176C65.744 26.872 65.656 26.632 65.48 26.456C65.32 26.264 65.096 26.168 64.808 26.168ZM72.4087 35.12C71.4167 35.12 70.6247 34.76 70.0327 34.04C69.4407 33.32 69.1447 32.376 69.1447 31.208C69.1447 29.928 69.4407 28.72 70.0327 27.584C70.6247 26.432 71.4087 25.512 72.3847 24.824C73.3767 24.12 74.4247 23.768 75.5287 23.768C75.8807 23.768 76.1127 23.84 76.2247 23.984C76.3527 24.112 76.4567 24.352 76.5367 24.704C76.8727 24.64 77.2247 24.608 77.5927 24.608C78.3767 24.608 78.7687 24.888 78.7687 25.448C78.7687 25.784 78.6487 26.584 78.4087 27.848C78.0407 29.688 77.8567 30.968 77.8567 31.688C77.8567 31.928 77.9127 32.12 78.0247 32.264C78.1527 32.408 78.3127 32.48 78.5047 32.48C78.8087 32.48 79.1767 32.288 79.6087 31.904C80.0407 31.504 80.6247 30.864 81.3607 29.984C81.5527 29.76 81.7687 29.648 82.0087 29.648C82.2167 29.648 82.3767 29.744 82.4887 29.936C82.6167 30.128 82.6807 30.392 82.6807 30.728C82.6807 31.368 82.5287 31.864 82.2247 32.216C81.5687 33.032 80.8727 33.72 80.1367 34.28C79.4007 34.84 78.6887 35.12 78.0007 35.12C77.4727 35.12 76.9847 34.944 76.5367 34.592C76.1047 34.224 75.7767 33.728 75.5527 33.104C74.7207 34.448 73.6727 35.12 72.4087 35.12ZM73.2727 32.696C73.6247 32.696 73.9607 32.488 74.2807 32.072C74.6007 31.656 74.8327 31.104 74.9767 30.416L75.8647 26C75.1927 26.016 74.5687 26.272 73.9927 26.768C73.4327 27.248 72.9847 27.888 72.6487 28.688C72.3127 29.488 72.1447 30.336 72.1447 31.232C72.1447 31.728 72.2407 32.096 72.4327 32.336C72.6407 32.576 72.9207 32.696 73.2727 32.696ZM94.6021 29.648C94.8101 29.648 94.9701 29.744 95.0821 29.936C95.2101 30.128 95.2741 30.392 95.2741 30.728C95.2741 31.368 95.1221 31.864 94.8181 32.216C94.0981 33.096 93.3701 33.8 92.6341 34.328C91.8981 34.856 91.0261 35.12 90.0181 35.12C88.7861 35.12 87.7941 34.768 87.0421 34.064C86.2901 33.36 85.9141 32.424 85.9141 31.256C85.9141 30.632 86.2341 30.184 86.8741 29.912C87.5781 29.608 88.0821 29.288 88.3861 28.952C88.6901 28.6 88.8421 28.176 88.8421 27.68C88.8421 27.392 88.7781 27.176 88.6501 27.032C88.5381 26.888 88.3941 26.816 88.2181 26.816C87.7861 26.816 87.3061 27.128 86.7781 27.752C86.2661 28.376 85.7861 29.184 85.3381 30.176C84.8901 31.152 84.5381 32.16 84.2821 33.2C84.1061 33.952 83.8981 34.464 83.6581 34.736C83.4341 34.992 83.0741 35.12 82.5781 35.12C82.0821 35.12 81.7141 34.944 81.4741 34.592C81.2501 34.224 81.0981 33.664 81.0181 32.912C80.9381 32.16 80.8981 31.056 80.8981 29.6C80.8981 27.136 81.1461 24.568 81.6421 21.896C82.1541 19.224 82.8981 16.984 83.8741 15.176C84.8661 13.352 86.0501 12.44 87.4261 12.44C88.1621 12.44 88.7541 12.76 89.2021 13.4C89.6661 14.024 89.8981 14.84 89.8981 15.848C89.8981 17.464 89.4261 19.144 88.4821 20.888C87.5381 22.616 86.0021 24.64 83.8741 26.96C83.8261 27.792 83.8021 28.648 83.8021 29.528C84.5701 27.528 85.4501 26.08 86.4421 25.184C87.4341 24.272 88.3621 23.816 89.2261 23.816C90.0261 23.816 90.6661 24.088 91.1461 24.632C91.6421 25.176 91.8901 25.848 91.8901 26.648C91.8901 27.528 91.6661 28.336 91.2181 29.072C90.7701 29.808 90.0021 30.464 88.9141 31.04C88.9781 31.472 89.1701 31.824 89.4901 32.096C89.8261 32.352 90.2261 32.48 90.6901 32.48C91.1861 32.48 91.6661 32.288 92.1301 31.904C92.5941 31.52 93.2021 30.88 93.9541 29.984C94.1461 29.76 94.3621 29.648 94.6021 29.648ZM86.9221 14.816C86.6341 14.816 86.3141 15.232 85.9621 16.064C85.6101 16.88 85.2661 17.992 84.9301 19.4C84.6101 20.792 84.3461 22.312 84.1381 23.96C85.1301 22.792 85.9461 21.52 86.5861 20.144C87.2421 18.768 87.5701 17.52 87.5701 16.4C87.5701 15.888 87.5141 15.496 87.4021 15.224C87.2901 14.952 87.1301 14.816 86.9221 14.816ZM104.044 29.648C104.252 29.648 104.412 29.744 104.523 29.936C104.652 30.128 104.716 30.392 104.716 30.728C104.716 31.368 104.564 31.864 104.26 32.216C103.668 32.936 102.828 33.6 101.74 34.208C100.668 34.816 99.5155 35.12 98.2835 35.12C96.6035 35.12 95.2995 34.664 94.3715 33.752C93.4435 32.84 92.9795 31.592 92.9795 30.008C92.9795 28.904 93.2115 27.88 93.6755 26.936C94.1395 25.976 94.7795 25.216 95.5955 24.656C96.4275 24.096 97.3635 23.816 98.4035 23.816C99.3315 23.816 100.076 24.096 100.636 24.656C101.196 25.2 101.476 25.944 101.476 26.888C101.476 27.992 101.076 28.944 100.276 29.744C99.4915 30.528 98.1555 31.152 96.2675 31.616C96.6675 32.352 97.4275 32.72 98.5475 32.72C99.2675 32.72 100.084 32.472 100.996 31.976C101.924 31.464 102.724 30.8 103.396 29.984C103.588 29.76 103.804 29.648 104.044 29.648ZM97.9955 26.168C97.4035 26.168 96.8995 26.512 96.4835 27.2C96.0835 27.888 95.8835 28.72 95.8835 29.696V29.744C96.8275 29.52 97.5715 29.184 98.1155 28.736C98.6595 28.288 98.9315 27.768 98.9315 27.176C98.9315 26.872 98.8435 26.632 98.6675 26.456C98.5075 26.264 98.2835 26.168 97.9955 26.168ZM104.465 35.12C103.857 35.12 103.425 34.8 103.169 34.16C102.929 33.52 102.809 32.496 102.809 31.088C102.809 29.008 103.105 27.032 103.697 25.16C103.841 24.696 104.073 24.36 104.393 24.152C104.729 23.928 105.193 23.816 105.785 23.816C106.105 23.816 106.329 23.856 106.457 23.936C106.585 24.016 106.649 24.168 106.649 24.392C106.649 24.648 106.529 25.224 106.289 26.12C106.129 26.76 106.001 27.32 105.905 27.8C105.809 28.28 105.729 28.872 105.665 29.576C106.193 28.2 106.785 27.08 107.441 26.216C108.097 25.352 108.737 24.736 109.361 24.368C110.001 24 110.585 23.816 111.113 23.816C112.153 23.816 112.673 24.336 112.673 25.376C112.673 25.584 112.601 26.088 112.457 26.888C112.329 27.528 112.265 27.928 112.265 28.088C112.265 28.648 112.465 28.928 112.865 28.928C113.313 28.928 113.889 28.576 114.593 27.872C114.801 27.664 115.017 27.56 115.241 27.56C115.449 27.56 115.609 27.656 115.721 27.848C115.849 28.024 115.913 28.264 115.913 28.568C115.913 29.16 115.753 29.624 115.433 29.96C114.985 30.424 114.457 30.824 113.849 31.16C113.257 31.48 112.625 31.64 111.953 31.64C111.105 31.64 110.457 31.424 110.009 30.992C109.577 30.56 109.361 29.976 109.361 29.24C109.361 29 109.385 28.76 109.433 28.52C109.465 28.2 109.481 27.984 109.481 27.872C109.481 27.616 109.393 27.488 109.217 27.488C108.977 27.488 108.657 27.76 108.257 28.304C107.873 28.832 107.489 29.536 107.105 30.416C106.721 31.296 106.409 32.224 106.169 33.2C105.993 33.952 105.785 34.464 105.545 34.736C105.321 34.992 104.961 35.12 104.465 35.12ZM116.827 22.232C116.155 22.232 115.651 22.08 115.315 21.776C114.979 21.456 114.811 21.016 114.811 20.456C114.811 19.896 115.027 19.432 115.459 19.064C115.907 18.68 116.459 18.488 117.115 18.488C117.707 18.488 118.187 18.632 118.555 18.92C118.923 19.208 119.107 19.616 119.107 20.144C119.107 20.784 118.899 21.296 118.483 21.68C118.067 22.048 117.515 22.232 116.827 22.232ZM116.635 35.12C115.595 35.12 114.835 34.752 114.355 34.016C113.891 33.28 113.659 32.304 113.659 31.088C113.659 30.368 113.747 29.448 113.923 28.328C114.115 27.192 114.355 26.136 114.643 25.16C114.787 24.648 114.979 24.296 115.219 24.104C115.459 23.912 115.843 23.816 116.371 23.816C117.187 23.816 117.595 24.088 117.595 24.632C117.595 25.032 117.443 25.96 117.139 27.416C116.755 29.176 116.563 30.368 116.563 30.992C116.563 31.472 116.627 31.84 116.755 32.096C116.883 32.352 117.099 32.48 117.403 32.48C117.691 32.48 118.051 32.28 118.483 31.88C118.915 31.48 119.491 30.848 120.211 29.984C120.403 29.76 120.619 29.648 120.859 29.648C121.067 29.648 121.227 29.744 121.339 29.936C121.467 30.128 121.531 30.392 121.531 30.728C121.531 31.368 121.379 31.864 121.075 32.216C119.491 34.152 118.011 35.12 116.635 35.12ZM122.35 35.12C121.438 35.12 120.694 34.76 120.118 34.04C119.558 33.32 119.278 32.376 119.278 31.208C119.278 29.928 119.574 28.72 120.166 27.584C120.758 26.432 121.542 25.512 122.518 24.824C123.51 24.12 124.558 23.768 125.662 23.768C126.014 23.768 126.246 23.84 126.358 23.984C126.486 24.112 126.59 24.352 126.67 24.704C126.974 24.64 127.31 24.608 127.678 24.608C128.062 24.608 128.358 24.704 128.566 24.896C128.774 25.088 128.878 25.36 128.878 25.712C128.878 26.08 128.798 26.72 128.638 27.632C128.462 28.608 128.326 29.544 128.23 30.44C128.134 31.32 128.086 32.312 128.086 33.416C128.086 34.024 127.958 34.464 127.702 34.736C127.462 34.992 127.062 35.12 126.502 35.12C125.958 35.12 125.55 34.992 125.278 34.736C125.022 34.464 124.894 34.032 124.894 33.44L124.918 33.056C124.422 34.432 123.566 35.12 122.35 35.12ZM123.286 32.696C123.734 32.696 124.142 32.384 124.51 31.76C124.878 31.136 125.206 30.024 125.493 28.424L125.95 26C125.294 26.016 124.686 26.272 124.126 26.768C123.566 27.248 123.118 27.888 122.782 28.688C122.446 29.488 122.278 30.336 122.278 31.232C122.278 31.712 122.366 32.08 122.542 32.336C122.734 32.576 122.982 32.696 123.286 32.696Z" fill="black"/>
</svg>
