<svg width="120" height="49" viewBox="0 0 120 49" fill="none" xmlns="http://www.w3.org/2000/svg">
<g clip-path="url(#clip0)">
<path d="M8.30524 44.6382C5.79194 45.104 3.87018 45.0052 2.53997 44.3418C1.21339 43.6595 0.738902 42.3369 1.11651 40.3741C1.31621 39.3361 1.64823 38.5102 2.11257 37.8964C2.57691 37.2825 3.15867 36.9108 3.85786 36.7812C4.36808 36.6866 4.7584 36.7417 5.02881 36.9464C5.29923 37.1511 5.3945 37.461 5.31462 37.8762C5.242 38.2537 5.15011 38.5892 5.03896 38.8828C5.02444 38.9583 4.98012 39.0939 4.90602 39.2896C4.85081 39.4818 4.80324 39.6818 4.7633 39.8894C4.59991 40.7386 4.90346 41.2921 5.67394 41.5497C6.46333 41.8037 7.63279 41.7872 9.18234 41.5C10.7886 41.2023 12.0997 40.6863 13.1157 39.952C14.1353 39.1988 14.745 38.3033 14.9447 37.2653C15.0681 36.6236 14.9655 36.1148 14.6369 35.7389C14.312 35.3441 13.8667 35.0536 13.3012 34.8672C12.7394 34.6619 11.9351 34.4379 10.8884 34.1951C9.54227 33.8986 8.45524 33.5814 7.62732 33.2434C6.8183 32.902 6.1666 32.3585 5.67223 31.6129C5.20038 30.845 5.08973 29.8099 5.34026 28.5077C5.60168 27.1488 6.1931 25.8744 7.11452 24.6845C8.05483 23.491 9.26156 22.4757 10.7347 21.6384C12.2267 20.7977 13.8987 20.2057 15.7506 19.8625C17.1301 19.6068 18.3562 19.5798 19.4291 19.7813C20.5056 19.964 21.3041 20.4075 21.8246 21.1118C22.364 21.8126 22.5175 22.767 22.2852 23.9748C22.0564 25.1638 21.7044 26.0935 21.2292 26.764C20.754 27.4345 20.1668 27.8345 19.4676 27.9641C18.9762 28.0552 18.5896 27.9812 18.3075 27.7423C18.0444 27.4999 17.9527 27.1711 18.0326 26.7559C18.1016 26.3973 18.1935 26.0618 18.3083 25.7493C18.4739 25.1726 18.5712 24.8088 18.6003 24.6578C18.7527 23.8651 18.4815 23.333 17.7867 23.0614C17.0918 22.7898 16.1679 22.7608 15.0152 22.9745C13.3901 23.2757 12.0848 23.8088 11.0993 24.5738C10.1364 25.3165 9.55148 26.2257 9.34452 27.3014C9.20655 28.0186 9.30586 28.5917 9.64246 29.0207C9.99795 29.4462 10.4737 29.7675 11.0698 29.9846C11.6658 30.2018 12.5137 30.4359 13.6134 30.6871C14.937 31.006 15.9881 31.3207 16.7666 31.6315C17.5451 31.9422 18.1586 32.4472 18.6072 33.1467C19.0746 33.8426 19.194 34.7851 18.9653 35.9741C18.5368 38.2011 17.356 40.0761 15.4229 41.5992C13.5124 43.0998 11.1398 44.1129 8.30524 44.6382Z" fill="black"/>
<path d="M21.9409 42.0291C21.2228 42.1622 20.7852 41.8793 20.6281 41.1804C20.4899 40.4781 20.5805 39.2965 20.9001 37.6357C21.3721 35.1822 22.1701 32.7866 23.2941 30.449C23.5695 29.8701 23.9197 29.423 24.3449 29.1076C24.7925 28.7699 25.366 28.5362 26.0651 28.4066C26.4431 28.3365 26.6986 28.3347 26.8316 28.401C26.9646 28.4674 27.0057 28.6327 26.9549 28.8969C26.8968 29.1988 26.6243 29.9045 26.1375 31.0139C25.8033 31.8039 25.5251 32.4924 25.3028 33.0796C25.0805 33.6668 24.8516 34.3826 24.6163 35.227C25.5522 33.4884 26.5055 32.0377 27.4763 30.875C28.4472 29.7123 29.3429 28.8456 30.1634 28.2749C31.0027 27.7008 31.7342 27.3559 32.3578 27.2403C33.5861 27.0127 34.0823 27.5122 33.8463 28.7389C33.7047 29.475 33.2408 30.844 32.4547 32.8461C31.7798 34.5545 31.3915 35.673 31.2899 36.2014C31.1446 36.9563 31.346 37.283 31.894 37.1814C32.272 37.1114 32.7596 36.8026 33.357 36.2551C33.9769 35.6852 34.8213 34.8007 35.8902 33.6016C36.1678 33.2954 36.4484 33.116 36.7318 33.0635C36.9775 33.0179 37.1447 33.0961 37.2334 33.2981C37.341 33.4965 37.3567 33.7939 37.2804 34.1903C37.1352 34.9452 36.8431 35.5635 36.4042 36.0452C35.3992 37.1961 34.3625 38.1799 33.2942 38.9967C32.2448 39.81 31.1249 40.327 29.9343 40.5476C28.9706 40.7262 28.2957 40.5874 27.9097 40.1312C27.5273 39.656 27.4378 38.89 27.6411 37.8332C27.7428 37.3047 28.0566 36.3366 28.5826 34.9287C29.057 33.6942 29.3377 32.8505 29.4249 32.3975C29.483 32.0956 29.4081 31.9639 29.2002 32.0024C28.9546 32.0479 28.5432 32.4335 27.9663 33.1593C27.4118 33.8626 26.7985 34.7771 26.1264 35.9026C25.4732 37.0247 24.8941 38.1876 24.3892 39.3914C24.0106 40.3169 23.6488 40.9664 23.3036 41.3397C22.981 41.6907 22.5267 41.9205 21.9409 42.0291Z" fill="black"/>
<path d="M47.8742 30.9983C48.1199 30.9528 48.2871 31.031 48.3758 31.233C48.4834 31.4314 48.4991 31.7288 48.4228 32.1251C48.2776 32.88 47.9855 33.4984 47.5466 33.9801C46.684 34.959 45.5412 35.9261 44.1183 36.8814C42.7142 37.8332 41.2846 38.444 39.8296 38.7136C37.8454 39.0814 36.4088 38.829 35.5197 37.9563C34.6306 37.0837 34.3658 35.7132 34.7253 33.8448C34.9758 32.5426 35.4822 31.284 36.2444 30.0689C37.0103 28.835 37.9387 27.7984 39.0295 26.9593C40.1392 26.1166 41.3082 25.5815 42.5365 25.3538C43.6325 25.1507 44.4477 25.3181 44.982 25.856C45.52 26.3751 45.6818 27.1914 45.4676 28.3049C45.2171 29.6071 44.5286 30.8176 43.4022 31.9364C42.2984 33.0327 40.5789 34.0612 38.2437 35.0218C38.5491 35.8024 39.3632 36.0701 40.686 35.8249C41.5364 35.6673 42.5564 35.1962 43.7461 34.4115C44.9583 33.6044 46.0538 32.6461 47.0327 31.5365C47.3103 31.2302 47.5908 31.0509 47.8742 30.9983ZM41.5209 28.2174C40.8217 28.347 40.1484 28.8631 39.501 29.7657C38.8724 30.6647 38.4474 31.6899 38.2259 32.8411L38.215 32.8978C39.3808 32.4269 40.3357 31.8677 41.0799 31.2202C41.824 30.5727 42.2633 29.8998 42.3976 29.2015C42.4666 28.8429 42.4172 28.5791 42.2492 28.41C42.1038 28.2186 41.8611 28.1544 41.5209 28.2174Z" fill="black"/>
<path d="M48.4663 37.1129C47.2947 37.3301 46.441 37.0788 45.9052 36.3591C45.3694 35.6394 45.234 34.5907 45.4991 33.213C45.7895 31.7032 46.4133 30.2135 47.3703 28.744C48.3309 27.2555 49.4656 25.9987 50.7744 24.9736C52.1058 23.926 53.4234 23.2814 54.7273 23.0398C55.1431 22.9627 55.4007 22.9969 55.5003 23.1422C55.6225 23.2652 55.6908 23.5255 55.7054 23.9232C56.1168 23.7741 56.5398 23.6593 56.9744 23.5788C57.9004 23.4072 58.2998 23.6516 58.1727 24.3122C58.0965 24.7085 57.7732 25.6784 57.2029 27.2219C56.3507 29.4728 55.8429 31.0229 55.6796 31.8722C55.6251 32.1553 55.6477 32.3695 55.7473 32.5148C55.8658 32.6566 56.0384 32.7065 56.2652 32.6645C56.6242 32.598 57.1024 32.2909 57.6998 31.7434C58.3007 31.1771 59.1357 30.2943 60.2047 29.0952C60.4823 28.789 60.7628 28.6096 61.0463 28.557C61.2919 28.5115 61.4591 28.5897 61.5478 28.7917C61.6554 28.9901 61.6711 29.2875 61.5948 29.6838C61.4496 30.4388 61.1575 31.0571 60.7186 31.5388C59.7587 32.6449 58.7805 33.6088 57.7842 34.4305C56.7878 35.2521 55.8834 35.7382 55.0708 35.8888C54.4472 36.0044 53.9108 35.9036 53.4615 35.5865C53.0348 35.247 52.76 34.7337 52.6371 34.0467C51.3494 35.8142 49.9592 36.8362 48.4663 37.1129ZM50.0368 34.0646C50.4526 33.9875 50.8966 33.6686 51.3689 33.1079C51.8413 32.5471 52.2406 31.8453 52.5668 31.0022L54.6177 25.599C53.8204 25.7649 53.0253 26.2035 52.2324 26.9146C51.4621 27.6034 50.7878 28.4564 50.2094 29.4735C49.631 30.4907 49.2401 31.5278 49.0368 32.5846C48.9242 33.1697 48.9541 33.5827 49.1264 33.8238C49.3176 34.0614 49.6211 34.1416 50.0368 34.0646Z" fill="black"/>
<path d="M75.9199 25.8004C76.1655 25.7548 76.3327 25.8331 76.4214 26.035C76.529 26.2335 76.5447 26.5309 76.4685 26.9272C76.3232 27.6821 76.0312 28.3004 75.5922 28.7822C74.5422 29.9778 73.5226 30.9675 72.5335 31.7514C71.5444 32.5353 70.4546 33.0376 69.2641 33.2583C67.8091 33.5279 66.7173 33.3299 65.9889 32.6641C65.2605 31.9983 65.0289 30.9766 65.2939 29.5989C65.4355 28.8628 65.9151 28.2643 66.7327 27.8034C67.6332 27.2907 68.3011 26.8029 68.7363 26.3401C69.1753 25.8583 69.451 25.3249 69.5636 24.7399C69.6289 24.4002 69.6024 24.1594 69.4839 24.0176C69.3843 23.8722 69.2305 23.8188 69.0227 23.8573C68.5124 23.9519 67.8747 24.425 67.1095 25.2766C66.3632 26.1247 65.6129 27.1829 64.8587 28.451C64.1081 29.7003 63.4636 30.9664 62.9253 32.2491C62.5467 33.1747 62.1849 33.8241 61.8397 34.1975C61.5171 34.5485 61.0628 34.7783 60.477 34.8869C59.8912 34.9954 59.4965 34.8684 59.293 34.5057C59.1119 34.1207 59.0595 33.4934 59.1356 32.6239C59.2118 31.7544 59.4151 30.4609 59.7455 28.7435C60.3047 25.8371 61.1803 22.7538 62.3725 19.4934C63.5836 16.2296 64.9706 13.4246 66.5336 11.0783C68.1191 8.7097 69.7245 7.37478 71.3496 7.07358C72.2189 6.91247 72.8454 7.16034 73.2293 7.81718C73.6357 8.45165 73.7246 9.36337 73.4958 10.5524C73.1291 12.4585 72.1904 14.5434 70.6797 16.8072C69.1726 19.0521 66.8992 21.7757 63.8594 24.9781C63.6139 25.97 63.3913 26.9849 63.1916 28.0229C64.5526 25.4957 65.9205 23.5951 67.2954 22.3211C68.674 21.0282 69.8735 20.2872 70.894 20.0981C71.8388 19.9229 72.533 20.1037 72.9764 20.6403C73.4388 21.1734 73.5792 21.9118 73.3976 22.8554C73.1979 23.8934 72.75 24.8955 72.0539 25.8617C71.3577 26.8279 70.3018 27.7698 68.8861 28.6874C68.8637 29.1829 69.0106 29.5561 69.3268 29.8069C69.6655 30.0353 70.1089 30.0987 70.6569 29.9972C71.2427 29.8886 71.8532 29.557 72.4883 29.0025C73.1235 28.448 73.9868 27.56 75.0783 26.3385C75.3559 26.0323 75.6364 25.8529 75.9199 25.8004ZM70.2152 9.9865C69.875 10.0495 69.4027 10.6103 68.7981 11.6687C68.1972 12.7083 67.5386 14.0952 66.8222 15.8296C66.1284 17.5415 65.4717 19.3922 64.852 21.3817C66.2887 19.7868 67.5411 18.1078 68.6092 16.3447C69.6963 14.578 70.3669 13.0341 70.621 11.7131C70.7372 11.1091 70.76 10.659 70.6895 10.3627C70.6189 10.0664 70.4608 9.94097 70.2152 9.9865Z" fill="black"/>
<path d="M87.0707 23.7337C87.3164 23.6882 87.4836 23.7664 87.5723 23.9683C87.6799 24.1668 87.6956 24.4642 87.6193 24.8605C87.4741 25.6154 87.182 26.2337 86.7431 26.7155C85.8805 27.6943 84.7377 28.6614 83.3148 29.6167C81.9107 30.5686 80.4811 31.1793 79.026 31.449C77.0419 31.8167 75.6052 31.5643 74.7162 30.6917C73.8271 29.8191 73.5623 28.4486 73.9218 26.5802C74.1723 25.278 74.6787 24.0193 75.4409 22.8043C76.2068 21.5704 77.1351 20.5338 78.226 19.6946C79.3357 18.852 80.5047 18.3168 81.733 18.0892C82.829 17.886 83.6442 18.0534 84.1785 18.5914C84.7164 19.1105 84.8783 19.9268 84.6641 21.0403C84.4136 22.3425 83.7251 23.553 82.5987 24.6717C81.4948 25.7681 79.7753 26.7966 77.4402 27.7572C77.7456 28.5378 78.5597 28.8055 79.8825 28.5603C80.7328 28.4027 81.7529 27.9315 82.9426 27.1469C84.1548 26.3398 85.2503 25.3815 86.2291 24.2719C86.5067 23.9656 86.7873 23.7862 87.0707 23.7337ZM80.7174 20.9528C80.0182 21.0823 79.3449 21.5984 78.6974 22.501C78.0689 23.4001 77.6439 24.4253 77.4224 25.5765L77.4115 25.6331C78.5772 25.1623 79.5322 24.6031 80.2764 23.9556C81.0205 23.308 81.4598 22.6351 81.5941 21.9369C81.6631 21.5783 81.6136 21.3144 81.4457 21.1454C81.3003 20.9539 81.0575 20.8897 80.7174 20.9528Z" fill="black"/>
<path d="M86.3272 30.0958C85.6091 30.2289 85.1715 29.946 85.0144 29.2471C84.8762 28.5448 84.9668 27.3632 85.2864 25.7024C85.7584 23.2489 86.5564 20.8534 87.6804 18.5157C87.9558 17.9368 88.306 17.4897 88.7312 17.1743C89.1788 16.8366 89.7523 16.6029 90.4514 16.4733C90.8294 16.4032 91.0849 16.4014 91.2179 16.4677C91.3509 16.5341 91.392 16.6994 91.3412 16.9636C91.2831 17.2655 91.0106 17.9712 90.5239 19.0806C90.1896 19.8706 89.9114 20.5591 89.6891 21.1463C89.4668 21.7335 89.2379 22.4493 89.0026 23.2937C89.9385 21.5551 90.8918 20.1044 91.8627 18.9417C92.8335 17.779 93.7292 16.9123 94.5497 16.3416C95.389 15.7675 96.1205 15.4226 96.7441 15.307C97.9724 15.0794 98.4686 15.5789 98.2326 16.8056C98.1854 17.051 97.986 17.6612 97.6344 18.6364C97.338 19.4193 97.1716 19.9051 97.1353 20.0939C97.0082 20.7544 97.1809 21.0409 97.6533 20.9533C98.1824 20.8553 98.9426 20.314 99.9338 19.3295C100.227 19.0386 100.505 18.8687 100.77 18.8196C101.016 18.7741 101.183 18.8523 101.271 19.0543C101.383 19.2338 101.404 19.5029 101.335 19.8615C101.201 20.5598 100.906 21.1421 100.452 21.6085C99.8177 22.2539 99.1033 22.8413 98.3089 23.3707C97.5371 23.8777 96.7544 24.2048 95.9607 24.3519C94.9592 24.5375 94.2429 24.4246 93.8118 24.0131C93.3996 23.5981 93.277 22.9565 93.4441 22.0884C93.4985 21.8053 93.5813 21.5169 93.6925 21.2233C93.8029 20.8389 93.8708 20.5806 93.8962 20.4485C93.9543 20.1465 93.8794 20.0148 93.6716 20.0533C93.3881 20.1059 92.9484 20.4967 92.3526 21.226C91.7792 21.9328 91.1659 22.8473 90.5127 23.9693C89.8595 25.0914 89.2804 26.2543 88.7755 27.4581C88.3969 28.3836 88.0351 29.0331 87.6899 29.4064C87.3673 29.7574 86.913 29.9872 86.3272 30.0958Z" fill="black"/>
<path d="M103.852 12.1879C103.058 12.335 102.498 12.266 102.17 11.981C101.846 11.6771 101.747 11.1948 101.874 10.5343C102.001 9.87374 102.362 9.27915 102.955 8.75052C103.572 8.19951 104.267 7.8522 105.042 7.70861C105.741 7.57902 106.275 7.6438 106.645 7.90296C107.014 8.16211 107.139 8.60309 107.019 9.22589C106.873 9.9808 106.512 10.6303 105.933 11.1743C105.358 11.6994 104.665 12.0373 103.852 12.1879ZM100.701 27.4319C99.4723 27.6595 98.6582 27.3918 98.2583 26.6287C97.8773 25.8621 97.8248 24.7617 98.1007 23.3274C98.2641 22.4781 98.5768 21.3737 99.0389 20.014C99.5234 18.6321 100.047 17.3339 100.608 16.1196C100.894 15.4842 101.201 15.027 101.528 14.748C101.855 14.4689 102.33 14.2717 102.954 14.1561C103.918 13.9775 104.338 14.209 104.214 14.8507C104.124 15.3225 103.734 16.4504 103.044 18.2343C102.191 20.3944 101.694 21.8424 101.552 22.5785C101.443 23.1446 101.435 23.5647 101.529 23.8386C101.622 24.1126 101.848 24.2163 102.207 24.1497C102.547 24.0867 103.017 23.772 103.618 23.2056C104.219 22.6392 105.043 21.7677 106.09 20.5909C106.367 20.2847 106.648 20.1053 106.931 20.0528C107.177 20.0072 107.344 20.0855 107.433 20.2874C107.54 20.4859 107.556 20.7833 107.48 21.1796C107.335 21.9345 107.042 22.5528 106.604 23.0346C104.293 25.6649 102.326 27.1307 100.701 27.4319Z" fill="black"/>
<path d="M107.449 26.181C106.372 26.3807 105.575 26.1189 105.058 25.3957C104.56 24.669 104.444 23.6168 104.709 22.2391C104.999 20.7293 105.623 19.2396 106.58 17.7701C107.541 16.2816 108.676 15.0248 109.984 13.9997C111.316 12.9521 112.633 12.3075 113.937 12.0659C114.353 11.9888 114.611 12.0229 114.71 12.1683C114.832 12.2912 114.901 12.5516 114.915 12.9493C115.289 12.8072 115.693 12.6959 116.128 12.6154C116.581 12.5313 116.909 12.5798 117.111 12.7607C117.313 12.9416 117.374 13.2397 117.294 13.6549C117.211 14.089 116.971 14.8614 116.575 15.9722C116.146 17.1619 115.773 18.2958 115.456 19.3736C115.143 20.4327 114.861 21.6133 114.611 22.9155C114.473 23.6327 114.222 24.1797 113.858 24.5565C113.516 24.911 113.015 25.1496 112.353 25.2722C111.711 25.3912 111.258 25.3296 110.995 25.0871C110.754 24.8224 110.701 24.3408 110.835 23.6425L110.951 23.1843C110.053 24.9159 108.886 25.9148 107.449 26.181ZM109.105 23.1169C109.634 23.0189 110.187 22.5615 110.763 21.7449C111.339 20.9283 111.979 19.5449 112.682 17.5946L113.771 14.6356C112.992 14.798 112.216 15.2331 111.442 15.9407C110.672 16.6295 109.998 17.4824 109.419 18.4996C108.841 19.5168 108.45 20.5538 108.247 21.6107C108.138 22.1769 108.158 22.5917 108.308 22.8551C108.48 23.0962 108.746 23.1835 109.105 23.1169Z" fill="black"/>
</g>
<defs>
<clipPath id="clip0">
<rect width="120" height="49" fill="white"/>
</clipPath>
</defs>
</svg>
